<?xml version="1.0" encoding="utf-8"?>
<!-- Generator: Adobe Illustrator 21.0.0, SVG Export Plug-In . SVG Version: 6.00 Build 0)  -->
<svg version="1.1" id="Layer_1" xmlns="http://www.w3.org/2000/svg" xmlns:xlink="http://www.w3.org/1999/xlink" x="0px" y="0px"
	 viewBox="0 0 904 340" style="enable-background:new 0 0 904 340;" xml:space="preserve">
<style type="text/css">
	.st0{fill:#E2DED6;}
	.st1{fill:none;stroke:#FFFFFF;stroke-width:0.5;stroke-miterlimit:10;}
	.st2{clip-path:url(#SVGID_2_);fill:none;stroke:#FA8072;stroke-linecap:round;stroke-linejoin:round;stroke-miterlimit:10;}
	.st3{clip-path:url(#SVGID_2_);fill:none;stroke:#2C9F2C;stroke-linecap:round;stroke-linejoin:round;stroke-miterlimit:10;}
	.st4{clip-path:url(#SVGID_2_);fill:none;stroke:#B24242;stroke-linecap:round;stroke-linejoin:round;stroke-miterlimit:10;}
	.st5{clip-path:url(#SVGID_2_);fill:none;stroke:#FFA500;stroke-linecap:round;stroke-linejoin:round;stroke-miterlimit:10;}
	.st6{clip-path:url(#SVGID_2_);fill:none;stroke:#FFD700;stroke-linecap:round;stroke-linejoin:round;stroke-miterlimit:10;}
	.st7{clip-path:url(#SVGID_2_);fill:none;stroke:#51DE61;stroke-linecap:round;stroke-linejoin:round;stroke-miterlimit:10;}
	.st8{clip-path:url(#SVGID_2_);fill:none;stroke:#808000;stroke-linecap:round;stroke-linejoin:round;stroke-miterlimit:10;}
	.st9{clip-path:url(#SVGID_2_);fill:none;stroke:#84AC39;stroke-linecap:round;stroke-linejoin:round;stroke-miterlimit:10;}
	.st10{clip-path:url(#SVGID_2_);fill:none;stroke:#B16E6E;stroke-linecap:round;stroke-linejoin:round;stroke-miterlimit:10;}
	.st11{clip-path:url(#SVGID_2_);fill:none;stroke:#B9A76C;stroke-linecap:round;stroke-linejoin:round;stroke-miterlimit:10;}
	.st12{fill:none;stroke:#272525;stroke-width:0.5;stroke-miterlimit:10;}
	.st13{fill:#272525;}
	.st14{font-family:'Helvetica';}
	.st15{font-size:12px;}
</style>
<g>
	<rect x="43.3" y="6" class="st0" width="850" height="300"/>
	<path class="st1" d="M43.3,258h850 M43.3,210h850 M43.3,162h850 M43.3,114h850 M43.3,66h850 M43.3,18h850 M213.3,306V6 M383.3,306
		V6 M553.3,306V6 M723.3,306V6"/>
	<g>
		<defs>
			<rect id="SVGID_1_" x="43.3" y="6" width="850" height="300"/>
		</defs>
		<clipPath id="SVGID_2_">
			<use xlink:href="#SVGID_1_"  style="overflow:visible;"/>
		</clipPath>
		<polyline class="st2" points="43.3,277.2 45,278.6 46.7,271.9 48.4,286.8 50.1,286.8 51.8,283.9 53.5,292.1 55.2,295.9 
			56.9,291.6 58.6,290.2 60.3,283.4 62,285.8 63.7,285.8 65.4,287.8 67.1,291.6 68.8,295.9 70.5,299.8 72.2,301.2 73.9,303.1 
			75.6,305.5 77.3,303.1 79,304.1 80.7,305 82.4,305.5 84.1,306 85.8,306 87.5,306 89.2,306 90.9,306 92.6,306 94.3,306 96,306 
			97.7,306 99.4,306 101.1,306 102.8,306 104.5,306 106.2,306 107.9,306 109.6,306 111.3,306 113,306 114.7,306 116.4,306 
			118.1,306 119.8,306 121.5,306 123.2,306 124.9,306 126.6,306 128.3,306 130,306 131.7,306 133.4,306 135.1,306 136.8,306 
			138.5,306 140.2,306 141.9,306 143.6,306 145.3,306 147,306 148.7,306 150.4,306 152.1,306 153.8,306 155.5,306 157.2,306 
			158.9,306 160.6,306 162.3,305.5 164,306 165.7,306 167.4,306 169.1,306 170.8,306 172.5,306 174.2,306 175.9,306 177.6,306 
			179.3,306 181,306 182.7,306 184.4,306 186.1,306 187.8,306 189.5,306 191.2,306 192.9,306 194.6,306 196.3,305.5 198,305.5 
			199.7,306 201.4,306 203.1,306 204.8,306 206.5,306 208.2,306 209.9,306 211.6,306 213.3,306 215,306 216.7,306 218.4,306 
			220.1,306 221.8,306 223.5,306 225.2,306 226.9,306 228.6,306 230.3,306 232,306 233.7,306 235.4,306 237.1,306 238.8,306 
			240.5,306 242.2,306 243.9,306 245.6,306 247.3,305.5 249,306 250.7,306 252.4,306 254.1,306 255.8,306 257.5,306 259.2,306 
			260.9,306 262.6,306 264.3,306 266,306 267.7,306 269.4,306 271.1,306 272.8,306 274.5,306 276.2,306 277.9,306 279.6,306 
			281.3,306 283,306 284.7,306 286.4,306 288.1,306 289.8,306 291.5,306 293.2,306 294.9,306 296.6,306 298.3,306 300,306 
			301.7,306 303.4,306 305.1,306 306.8,306 308.5,306 310.2,306 311.9,306 313.6,306 315.3,306 317,306 318.7,306 320.4,306 
			322.1,306 323.8,306 325.5,306 327.2,306 328.9,306 330.6,306 332.3,305.5 334,305.5 335.7,305.5 337.4,305 339.1,305.5 
			340.8,306 342.5,306 344.2,306 345.9,306 347.6,306 349.3,306 351,306 352.7,306 354.4,306 356.1,306 357.8,306 359.5,306 
			361.2,306 362.9,306 364.6,306 366.3,306 368,306 369.7,306 371.4,306 373.1,306 374.8,306 376.5,306 378.2,306 379.9,306 
			381.6,306 383.3,305.5 385,305.5 386.7,303.1 388.4,302.6 390.1,295.9 391.8,294 393.5,297.8 395.2,295 396.9,293 398.6,287.8 
			400.3,282.5 402,281 403.7,277.7 405.4,270 407.1,268.1 408.8,268.6 410.5,260.9 412.2,264.2 413.9,278.2 415.6,273.8 
			417.3,279.6 419,272.9 420.7,253.2 422.4,254.6 424.1,262.3 425.8,265.2 427.5,269.5 429.2,253.7 430.9,263.3 432.6,256.6 
			434.3,254.6 436,242.6 437.7,243.6 439.4,247.9 441.1,247 442.8,235.4 444.5,235.4 446.2,237.4 447.9,222.5 449.6,235.4 
			451.3,224.9 453,230.2 454.7,221.5 456.4,238.8 458.1,252.2 459.8,254.6 461.5,256.1 463.2,268.6 464.9,261.8 466.6,261.8 
			468.3,263.8 470,262.8 471.7,255.1 473.4,245 475.1,259.4 476.8,272.4 478.5,271.9 480.2,274.3 481.9,273.4 483.6,261.4 
			485.3,271.9 487,274.3 488.7,279.6 490.4,283 492.1,279.1 493.8,276.2 495.5,280.1 497.2,284.9 498.9,290.2 500.6,285.4 
			502.3,284.4 504,275.8 505.7,276.2 507.4,278.6 509.1,283 510.8,290.6 512.5,295.9 514.2,289.2 515.9,287.3 517.6,284.9 
			519.3,279.6 521,282.5 522.7,272.9 524.4,286.3 526.1,284.4 527.8,292.6 529.5,297.8 531.2,293 532.9,289.7 534.6,287.3 
			536.3,290.2 538,296.4 539.7,298.8 541.4,298.3 543.1,301.7 544.8,304.6 546.5,305.5 548.2,306 549.9,306 551.6,306 553.3,306 
			555,306 556.7,306 558.4,306 560.1,306 561.8,306 563.5,306 565.2,306 566.9,306 568.6,306 570.3,306 572,306 573.7,306 
			575.4,306 577.1,306 578.8,306 580.5,306 582.2,306 583.9,306 585.6,306 587.3,306 589,306 590.7,306 592.4,306 594.1,306 
			595.8,306 597.5,306 599.2,306 600.9,306 602.6,306 604.3,306 606,306 607.7,306 609.4,306 611.1,306 612.8,306 614.5,306 
			616.2,306 617.9,306 619.6,306 621.3,306 623,306 624.7,306 626.4,306 628.1,306 629.8,306 631.5,306 633.2,306 634.9,306 
			636.6,306 638.3,306 640,306 641.7,306 643.4,306 645.1,306 646.8,306 648.5,306 650.2,306 651.9,306 653.6,306 655.3,306 
			657,306 658.7,306 660.4,306 662.1,306 663.8,306 665.5,306 667.2,306 668.9,306 670.6,306 672.3,306 674,306 675.7,306 
			677.4,306 679.1,306 680.8,306 682.5,306 684.2,306 685.9,306 687.6,306 689.3,306 691,306 692.7,306 694.4,306 696.1,306 
			697.8,306 699.5,306 701.2,306 702.9,306 704.6,306 706.3,306 708,306 709.7,306 711.4,306 713.1,306 714.8,306 716.5,306 
			718.2,306 719.9,306 721.6,306 723.3,306 725,306 726.7,306 728.4,306 730.1,306 731.8,306 733.5,306 735.2,306 736.9,306 
			738.6,306 740.3,306 742,306 743.7,306 745.4,306 747.1,306 748.8,306 750.5,306 752.2,306 753.9,306 755.6,306 757.3,306 
			759,306 760.7,306 762.4,306 764.1,306 765.8,306 767.5,306 769.2,306 770.9,306 772.6,306 774.3,306 776,306 777.7,306 
			779.4,306 781.1,306 782.8,306 784.5,306 786.2,306 787.9,306 789.6,306 791.3,306 793,306 794.7,306 796.4,306 798.1,306 
			799.8,306 801.5,306 803.2,306 804.9,306 806.6,306 808.3,306 810,306 811.7,306 813.4,306 815.1,306 816.8,306 818.5,306 
			820.2,306 821.9,306 823.6,306 825.3,306 827,306 828.7,306 830.4,306 832.1,306 833.8,306 835.5,306 837.2,306 838.9,306 
			840.6,306 842.3,305.5 844,306 845.7,306 847.4,306 849.1,306 850.8,306 852.5,306 854.2,306 855.9,306 857.6,306 859.3,306 
			861,306 862.7,306 864.4,306 866.1,306 867.8,306 869.5,306 871.2,306 872.9,306 874.6,306 876.3,306 878,306 879.7,306 
			881.4,306 883.1,306 884.8,306 886.5,306 888.2,306 889.9,306 891.6,306 		"/>
		<polyline class="st3" points="43.3,283 45,284.9 46.7,294.5 48.4,292.6 50.1,292.6 51.8,292.6 53.5,291.6 55.2,297.4 56.9,303.6 
			58.6,303.1 60.3,297.8 62,299.8 63.7,299.3 65.4,293.5 67.1,294 68.8,294 70.5,302.2 72.2,305 73.9,306 75.6,306 77.3,306 79,306 
			80.7,306 82.4,306 84.1,306 85.8,306 87.5,306 89.2,306 90.9,306 92.6,306 94.3,306 96,306 97.7,306 99.4,306 101.1,306 
			102.8,306 104.5,306 106.2,306 107.9,306 109.6,306 111.3,306 113,306 114.7,306 116.4,306 118.1,306 119.8,306 121.5,306 
			123.2,306 124.9,306 126.6,306 128.3,306 130,306 131.7,306 133.4,306 135.1,306 136.8,306 138.5,306 140.2,306 141.9,306 
			143.6,306 145.3,306 147,306 148.7,306 150.4,306 152.1,306 153.8,306 155.5,306 157.2,306 158.9,306 160.6,306 162.3,306 
			164,306 165.7,306 167.4,306 169.1,306 170.8,306 172.5,306 174.2,306 175.9,306 177.6,306 179.3,306 181,306 182.7,306 
			184.4,306 186.1,306 187.8,306 189.5,306 191.2,306 192.9,306 194.6,306 196.3,306 198,306 199.7,306 201.4,306 203.1,306 
			204.8,306 206.5,306 208.2,306 209.9,306 211.6,306 213.3,306 215,306 216.7,306 218.4,306 220.1,306 221.8,306 223.5,306 
			225.2,306 226.9,306 228.6,306 230.3,306 232,306 233.7,306 235.4,306 237.1,306 238.8,306 240.5,306 242.2,306 243.9,306 
			245.6,306 247.3,306 249,306 250.7,306 252.4,306 254.1,306 255.8,306 257.5,306 259.2,306 260.9,306 262.6,306 264.3,306 
			266,306 267.7,306 269.4,306 271.1,306 272.8,306 274.5,306 276.2,306 277.9,306 279.6,306 281.3,306 283,306 284.7,306 
			286.4,306 288.1,306 289.8,306 291.5,306 293.2,306 294.9,306 296.6,306 298.3,306 300,306 301.7,306 303.4,306 305.1,306 
			306.8,306 308.5,306 310.2,306 311.9,306 313.6,306 315.3,306 317,306 318.7,306 320.4,306 322.1,306 323.8,306 325.5,306 
			327.2,306 328.9,306 330.6,306 332.3,306 334,306 335.7,306 337.4,306 339.1,306 340.8,306 342.5,306 344.2,306 345.9,306 
			347.6,306 349.3,305.5 351,305 352.7,305 354.4,305 356.1,306 357.8,306 359.5,306 361.2,306 362.9,306 364.6,306 366.3,306 
			368,306 369.7,306 371.4,306 373.1,306 374.8,306 376.5,306 378.2,306 379.9,306 381.6,306 383.3,306 385,306 386.7,306 
			388.4,306 390.1,306 391.8,306 393.5,306 395.2,306 396.9,306 398.6,306 400.3,306 402,306 403.7,306 405.4,306 407.1,306 
			408.8,306 410.5,306 412.2,306 413.9,306 415.6,306 417.3,306 419,306 420.7,306 422.4,306 424.1,306 425.8,306 427.5,306 
			429.2,306 430.9,306 432.6,306 434.3,306 436,306 437.7,306 439.4,306 441.1,306 442.8,306 444.5,306 446.2,306 447.9,306 
			449.6,306 451.3,306 453,306 454.7,306 456.4,306 458.1,306 459.8,306 461.5,306 463.2,306 464.9,306 466.6,306 468.3,306 
			470,306 471.7,306 473.4,306 475.1,306 476.8,306 478.5,306 480.2,306 481.9,306 483.6,306 485.3,305.5 487,306 488.7,306 
			490.4,306 492.1,306 493.8,306 495.5,306 497.2,306 498.9,306 500.6,306 502.3,306 504,306 505.7,306 507.4,306 509.1,306 
			510.8,306 512.5,306 514.2,306 515.9,306 517.6,306 519.3,306 521,306 522.7,306 524.4,306 526.1,306 527.8,306 529.5,306 
			531.2,306 532.9,306 534.6,306 536.3,305.5 538,304.6 539.7,304.6 541.4,305.5 543.1,306 544.8,306 546.5,306 548.2,306 
			549.9,306 551.6,306 553.3,306 555,306 556.7,306 558.4,306 560.1,306 561.8,306 563.5,306 565.2,306 566.9,306 568.6,306 
			570.3,306 572,306 573.7,306 575.4,306 577.1,306 578.8,306 580.5,306 582.2,306 583.9,306 585.6,306 587.3,305.5 589,306 
			590.7,306 592.4,306 594.1,306 595.8,306 597.5,306 599.2,306 600.9,306 602.6,306 604.3,306 606,306 607.7,306 609.4,306 
			611.1,306 612.8,306 614.5,306 616.2,306 617.9,306 619.6,306 621.3,306 623,306 624.7,306 626.4,306 628.1,306 629.8,306 
			631.5,306 633.2,306 634.9,306 636.6,306 638.3,305.5 640,306 641.7,306 643.4,306 645.1,306 646.8,306 648.5,306 650.2,306 
			651.9,306 653.6,306 655.3,306 657,306 658.7,306 660.4,306 662.1,306 663.8,306 665.5,306 667.2,306 668.9,306 670.6,306 
			672.3,306 674,306 675.7,306 677.4,306 679.1,306 680.8,306 682.5,306 684.2,306 685.9,306 687.6,306 689.3,306 691,306 
			692.7,306 694.4,306 696.1,306 697.8,306 699.5,306 701.2,306 702.9,306 704.6,306 706.3,306 708,306 709.7,306 711.4,306 
			713.1,306 714.8,306 716.5,306 718.2,306 719.9,306 721.6,306 723.3,306 725,306 726.7,306 728.4,306 730.1,306 731.8,306 
			733.5,306 735.2,306 736.9,306 738.6,306 740.3,306 742,306 743.7,306 745.4,306 747.1,306 748.8,306 750.5,306 752.2,306 
			753.9,306 755.6,306 757.3,306 759,306 760.7,306 762.4,306 764.1,306 765.8,306 767.5,306 769.2,306 770.9,306 772.6,306 
			774.3,306 776,306 777.7,306 779.4,306 781.1,306 782.8,306 784.5,306 786.2,306 787.9,306 789.6,306 791.3,306 793,306 
			794.7,306 796.4,306 798.1,306 799.8,306 801.5,306 803.2,306 804.9,306 806.6,306 808.3,306 810,306 811.7,306 813.4,306 
			815.1,306 816.8,306 818.5,306 820.2,306 821.9,306 823.6,306 825.3,306 827,306 828.7,306 830.4,306 832.1,306 833.8,306 
			835.5,306 837.2,306 838.9,306 840.6,306 842.3,306 844,306 845.7,306 847.4,306 849.1,306 850.8,306 852.5,306 854.2,306 
			855.9,306 857.6,306 859.3,306 861,306 862.7,306 864.4,306 866.1,306 867.8,306 869.5,306 871.2,306 872.9,306 874.6,306 
			876.3,306 878,306 879.7,306 881.4,306 883.1,306 884.8,306 886.5,306 888.2,306 889.9,306 891.6,306 		"/>
		<polyline class="st4" points="43.3,279.1 45,271.9 46.7,283 48.4,275.3 50.1,274.8 51.8,283.4 53.5,288.2 55.2,279.6 56.9,288.7 
			58.6,282 60.3,295 62,296.4 63.7,301.2 65.4,300.7 67.1,300.7 68.8,301.7 70.5,302.2 72.2,300.2 73.9,302.2 75.6,302.6 
			77.3,302.6 79,302.2 80.7,301.2 82.4,300.2 84.1,296.4 85.8,298.8 87.5,302.6 89.2,304.1 90.9,303.6 92.6,306 94.3,306 96,306 
			97.7,306 99.4,306 101.1,306 102.8,306 104.5,306 106.2,306 107.9,306 109.6,306 111.3,306 113,306 114.7,306 116.4,306 
			118.1,306 119.8,306 121.5,306 123.2,306 124.9,306 126.6,306 128.3,306 130,306 131.7,306 133.4,306 135.1,306 136.8,306 
			138.5,306 140.2,306 141.9,306 143.6,306 145.3,306 147,306 148.7,306 150.4,306 152.1,306 153.8,306 155.5,306 157.2,306 
			158.9,306 160.6,306 162.3,306 164,306 165.7,306 167.4,306 169.1,306 170.8,306 172.5,306 174.2,306 175.9,306 177.6,306 
			179.3,305.5 181,306 182.7,306 184.4,306 186.1,306 187.8,306 189.5,306 191.2,306 192.9,306 194.6,306 196.3,306 198,306 
			199.7,306 201.4,306 203.1,306 204.8,306 206.5,306 208.2,306 209.9,306 211.6,306 213.3,306 215,306 216.7,306 218.4,306 
			220.1,306 221.8,306 223.5,306 225.2,306 226.9,306 228.6,306 230.3,306 232,306 233.7,306 235.4,306 237.1,306 238.8,306 
			240.5,306 242.2,306 243.9,306 245.6,306 247.3,306 249,306 250.7,306 252.4,306 254.1,306 255.8,306 257.5,306 259.2,306 
			260.9,306 262.6,306 264.3,306 266,306 267.7,306 269.4,306 271.1,306 272.8,306 274.5,306 276.2,306 277.9,306 279.6,306 
			281.3,306 283,306 284.7,306 286.4,306 288.1,306 289.8,306 291.5,306 293.2,306 294.9,306 296.6,306 298.3,306 300,306 
			301.7,306 303.4,306 305.1,306 306.8,306 308.5,306 310.2,306 311.9,306 313.6,306 315.3,306 317,306 318.7,306 320.4,306 
			322.1,306 323.8,306 325.5,306 327.2,306 328.9,306 330.6,306 332.3,306 334,306 335.7,306 337.4,306 339.1,306 340.8,306 
			342.5,306 344.2,306 345.9,306 347.6,306 349.3,306 351,306 352.7,306 354.4,306 356.1,306 357.8,306 359.5,306 361.2,306 
			362.9,306 364.6,306 366.3,306 368,306 369.7,306 371.4,306 373.1,306 374.8,306 376.5,306 378.2,306 379.9,306 381.6,306 
			383.3,306 385,306 386.7,306 388.4,306 390.1,306 391.8,306 393.5,306 395.2,306 396.9,306 398.6,306 400.3,306 402,306 
			403.7,306 405.4,306 407.1,306 408.8,306 410.5,306 412.2,306 413.9,306 415.6,306 417.3,306 419,306 420.7,306 422.4,306 
			424.1,306 425.8,306 427.5,306 429.2,306 430.9,306 432.6,306 434.3,306 436,306 437.7,306 439.4,306 441.1,306 442.8,306 
			444.5,306 446.2,306 447.9,306 449.6,306 451.3,306 453,306 454.7,306 456.4,306 458.1,306 459.8,306 461.5,306 463.2,306 
			464.9,306 466.6,306 468.3,305.5 470,304.6 471.7,305 473.4,305 475.1,306 476.8,306 478.5,306 480.2,306 481.9,306 483.6,306 
			485.3,306 487,306 488.7,306 490.4,306 492.1,306 493.8,306 495.5,306 497.2,306 498.9,306 500.6,306 502.3,306 504,306 
			505.7,306 507.4,306 509.1,306 510.8,306 512.5,306 514.2,306 515.9,306 517.6,306 519.3,306 521,306 522.7,306 524.4,306 
			526.1,306 527.8,306 529.5,306 531.2,306 532.9,306 534.6,306 536.3,306 538,306 539.7,306 541.4,306 543.1,306 544.8,306 
			546.5,306 548.2,306 549.9,306 551.6,306 553.3,306 555,306 556.7,306 558.4,306 560.1,306 561.8,306 563.5,306 565.2,306 
			566.9,306 568.6,306 570.3,305.5 572,305 573.7,303.6 575.4,304.1 577.1,305.5 578.8,306 580.5,306 582.2,306 583.9,306 
			585.6,306 587.3,306 589,306 590.7,306 592.4,306 594.1,306 595.8,306 597.5,306 599.2,306 600.9,306 602.6,306 604.3,306 
			606,306 607.7,306 609.4,306 611.1,306 612.8,306 614.5,306 616.2,306 617.9,306 619.6,306 621.3,306 623,306 624.7,306 
			626.4,306 628.1,306 629.8,306 631.5,306 633.2,306 634.9,306 636.6,306 638.3,306 640,306 641.7,306 643.4,306 645.1,306 
			646.8,306 648.5,306 650.2,306 651.9,306 653.6,306 655.3,305.5 657,305.5 658.7,306 660.4,306 662.1,306 663.8,306 665.5,306 
			667.2,306 668.9,306 670.6,306 672.3,306 674,306 675.7,306 677.4,306 679.1,306 680.8,306 682.5,306 684.2,306 685.9,306 
			687.6,306 689.3,306 691,306 692.7,306 694.4,306 696.1,306 697.8,306 699.5,306 701.2,306 702.9,306 704.6,306 706.3,306 
			708,306 709.7,306 711.4,306 713.1,306 714.8,306 716.5,306 718.2,306 719.9,306 721.6,306 723.3,306 725,306 726.7,306 
			728.4,306 730.1,306 731.8,306 733.5,306 735.2,306 736.9,306 738.6,306 740.3,306 742,306 743.7,306 745.4,306 747.1,306 
			748.8,306 750.5,306 752.2,306 753.9,306 755.6,306 757.3,306 759,306 760.7,306 762.4,306 764.1,306 765.8,306 767.5,306 
			769.2,306 770.9,306 772.6,306 774.3,306 776,306 777.7,306 779.4,306 781.1,306 782.8,306 784.5,306 786.2,306 787.9,306 
			789.6,306 791.3,306 793,306 794.7,306 796.4,306 798.1,306 799.8,306 801.5,306 803.2,306 804.9,306 806.6,306 808.3,305.5 
			810,306 811.7,306 813.4,306 815.1,306 816.8,306 818.5,306 820.2,306 821.9,306 823.6,306 825.3,306 827,306 828.7,306 
			830.4,306 832.1,306 833.8,306 835.5,306 837.2,306 838.9,306 840.6,306 842.3,306 844,306 845.7,306 847.4,306 849.1,306 
			850.8,306 852.5,306 854.2,306 855.9,306 857.6,306 859.3,306 861,306 862.7,306 864.4,306 866.1,306 867.8,306 869.5,306 
			871.2,306 872.9,306 874.6,306 876.3,306 878,306 879.7,306 881.4,306 883.1,306 884.8,306 886.5,306 888.2,306 889.9,306 
			891.6,306 		"/>
		<polyline class="st5" points="43.3,278.2 45,276.7 46.7,282.5 48.4,287.3 50.1,292.6 51.8,292.6 53.5,280.1 55.2,257.5 
			56.9,237.4 58.6,232.6 60.3,236.4 62,226.3 63.7,213.8 65.4,214.8 67.1,200.4 68.8,201.4 70.5,202.8 72.2,201.8 73.9,193.7 
			75.6,195.6 77.3,188.9 79,197 80.7,215.8 82.4,224.4 84.1,235.4 85.8,248.4 87.5,265.2 89.2,264.7 90.9,268.1 92.6,268.6 
			94.3,276.2 96,273.4 97.7,282.5 99.4,277.2 101.1,273.8 102.8,272.9 104.5,280.6 106.2,278.6 107.9,283 109.6,285.8 111.3,274.8 
			113,277.7 114.7,279.1 116.4,270.5 118.1,266.2 119.8,259 121.5,265.2 123.2,260.9 124.9,255.6 126.6,253.7 128.3,265.2 
			130,259.4 131.7,252.7 133.4,258 135.1,262.3 136.8,248.9 138.5,236.4 140.2,224.4 141.9,219.6 143.6,235 145.3,243.6 147,243.1 
			148.7,258.5 150.4,257.5 152.1,250.8 153.8,247 155.5,246 157.2,243.6 158.9,236.9 160.6,232.6 162.3,225.4 164,226.3 
			165.7,212.9 167.4,223 169.1,220.1 170.8,211.4 172.5,217.7 174.2,223.4 175.9,227.3 177.6,221.5 179.3,226.8 181,225.4 
			182.7,242.2 184.4,245.5 186.1,242.6 187.8,224.9 189.5,226.8 191.2,216.7 192.9,217.7 194.6,221.5 196.3,224.4 198,214.3 
			199.7,205.7 201.4,208.1 203.1,208.1 204.8,206.2 206.5,202.8 208.2,200.9 209.9,198.5 211.6,199 213.3,181.2 215,188.4 
			216.7,188.9 218.4,187.9 220.1,199.9 221.8,205.2 223.5,204.2 225.2,205.2 226.9,210.5 228.6,218.2 230.3,208.6 232,211.9 
			233.7,203.3 235.4,187.9 237.1,208.1 238.8,209 240.5,215.3 242.2,205.7 243.9,207.6 245.6,203.8 247.3,210.5 249,206.2 
			250.7,232.1 252.4,212.4 254.1,219.1 255.8,221 257.5,231.1 259.2,231.1 260.9,238.3 262.6,247.4 264.3,248.4 266,261.8 
			267.7,265.7 269.4,258.5 271.1,247 272.8,245 274.5,235.4 276.2,235 277.9,232.6 279.6,219.6 281.3,222 283,214.3 284.7,210.5 
			286.4,220.6 288.1,222 289.8,232.1 291.5,223.4 293.2,218.2 294.9,231.1 296.6,226.3 298.3,211.4 300,194.6 301.7,199 
			303.4,198.5 305.1,184.1 306.8,175.9 308.5,175.4 310.2,160.6 311.9,177.4 313.6,188.9 315.3,206.6 317,196.6 318.7,160.1 
			320.4,173 322.1,179.3 323.8,198 325.5,194.2 327.2,203.3 328.9,202.8 330.6,216.7 332.3,225.4 334,222 335.7,188.4 337.4,181.7 
			339.1,196.6 340.8,198.5 342.5,203.8 344.2,207.1 345.9,224.9 347.6,227.8 349.3,224.9 351,226.3 352.7,220.1 354.4,222.5 
			356.1,222 357.8,229.2 359.5,225.4 361.2,228.7 362.9,234 364.6,240.7 366.3,254.6 368,264.2 369.7,263.3 371.4,265.7 373.1,271 
			374.8,268.1 376.5,277.7 378.2,283 379.9,277.7 381.6,278.2 383.3,278.2 385,275.8 386.7,276.7 388.4,284.4 390.1,283.4 
			391.8,283 393.5,287.8 395.2,279.1 396.9,282.5 398.6,290.2 400.3,290.6 402,295.4 403.7,292.6 405.4,288.2 407.1,287.3 
			408.8,291.6 410.5,299.3 412.2,298.8 413.9,300.7 415.6,302.6 417.3,299.8 419,293.5 420.7,297.4 422.4,295.4 424.1,294.5 
			425.8,295 427.5,295 429.2,295 430.9,288.7 432.6,286.8 434.3,285.4 436,283.4 437.7,287.3 439.4,286.3 441.1,286.3 442.8,290.6 
			444.5,285.4 446.2,282 447.9,279.6 449.6,278.2 451.3,275.8 453,270.5 454.7,271 456.4,264.2 458.1,254.2 459.8,254.6 
			461.5,245.5 463.2,247 464.9,245 466.6,239.8 468.3,245.5 470,247.4 471.7,254.6 473.4,259.4 475.1,254.2 476.8,256.6 
			478.5,265.7 480.2,265.7 481.9,271 483.6,262.8 485.3,258 487,256.1 488.7,260.4 490.4,262.3 492.1,266.2 493.8,272.9 
			495.5,273.4 497.2,265.7 498.9,272.4 500.6,271.9 502.3,275.8 504,284.9 505.7,279.6 507.4,278.2 509.1,271.9 510.8,260.9 
			512.5,258.5 514.2,258 515.9,266.2 517.6,266.6 519.3,254.2 521,253.2 522.7,264.2 524.4,259.9 526.1,248.9 527.8,240.7 
			529.5,258.5 531.2,257.5 532.9,252.7 534.6,261.4 536.3,260.9 538,242.6 539.7,230.2 541.4,231.6 543.1,237.8 544.8,242.6 
			546.5,242.6 548.2,248.4 549.9,258 551.6,253.7 553.3,238.3 555,227.8 556.7,209.5 558.4,216.7 560.1,232.6 561.8,242.2 
			563.5,235.9 565.2,232.6 566.9,237.8 568.6,233 570.3,242.6 572,248.4 573.7,242.6 575.4,258.5 577.1,250.3 578.8,262.8 
			580.5,251.3 582.2,243.1 583.9,255.1 585.6,271 587.3,275.8 589,278.6 590.7,275.8 592.4,271 594.1,275.8 595.8,277.7 
			597.5,281.5 599.2,277.7 600.9,273.8 602.6,279.1 604.3,283.9 606,289.7 607.7,297.8 609.4,302.2 611.1,304.6 612.8,305 
			614.5,305.5 616.2,306 617.9,306 619.6,306 621.3,306 623,306 624.7,306 626.4,306 628.1,306 629.8,306 631.5,306 633.2,306 
			634.9,306 636.6,306 638.3,306 640,306 641.7,306 643.4,306 645.1,306 646.8,306 648.5,306 650.2,306 651.9,306 653.6,306 
			655.3,306 657,306 658.7,306 660.4,306 662.1,306 663.8,306 665.5,306 667.2,306 668.9,306 670.6,306 672.3,306 674,306 
			675.7,306 677.4,306 679.1,306 680.8,306 682.5,306 684.2,306 685.9,306 687.6,306 689.3,306 691,306 692.7,306 694.4,306 
			696.1,306 697.8,306 699.5,306 701.2,306 702.9,306 704.6,306 706.3,306 708,306 709.7,306 711.4,306 713.1,306 714.8,306 
			716.5,306 718.2,306 719.9,306 721.6,306 723.3,306 725,306 726.7,306 728.4,306 730.1,306 731.8,306 733.5,306 735.2,306 
			736.9,306 738.6,306 740.3,306 742,306 743.7,306 745.4,306 747.1,306 748.8,306 750.5,306 752.2,306 753.9,306 755.6,306 
			757.3,306 759,306 760.7,306 762.4,306 764.1,306 765.8,306 767.5,306 769.2,306 770.9,306 772.6,306 774.3,306 776,306 
			777.7,306 779.4,306 781.1,306 782.8,306 784.5,306 786.2,306 787.9,306 789.6,306 791.3,306 793,306 794.7,306 796.4,306 
			798.1,306 799.8,306 801.5,306 803.2,306 804.9,306 806.6,306 808.3,306 810,306 811.7,306 813.4,306 815.1,306 816.8,306 
			818.5,306 820.2,306 821.9,306 823.6,306 825.3,306 827,306 828.7,306 830.4,306 832.1,306 833.8,306 835.5,306 837.2,306 
			838.9,306 840.6,306 842.3,306 844,306 845.7,306 847.4,306 849.1,306 850.8,306 852.5,306 854.2,306 855.9,306 857.6,306 
			859.3,305.5 861,306 862.7,306 864.4,306 866.1,306 867.8,306 869.5,306 871.2,306 872.9,306 874.6,306 876.3,306 878,306 
			879.7,306 881.4,306 883.1,306 884.8,306 886.5,306 888.2,306 889.9,306 891.6,306 		"/>
		<polyline class="st6" points="43.3,272.9 45,278.6 46.7,267.1 48.4,257.5 50.1,262.3 51.8,258.5 53.5,265.2 55.2,259.4 56.9,258 
			58.6,257.5 60.3,247.9 62,258.5 63.7,266.6 65.4,256.1 67.1,264.7 68.8,258 70.5,260.4 72.2,260.9 73.9,259.4 75.6,255.1 
			77.3,273.4 79,267.1 80.7,261.8 82.4,264.2 84.1,269 85.8,247.4 87.5,245.5 89.2,256.1 90.9,261.4 92.6,267.1 94.3,273.8 
			96,276.7 97.7,266.6 99.4,277.7 101.1,284.4 102.8,282.5 104.5,275.8 106.2,271 107.9,274.3 109.6,268.1 111.3,273.8 113,274.8 
			114.7,268.6 116.4,268.6 118.1,275.3 119.8,275.3 121.5,276.7 123.2,271.4 124.9,274.8 126.6,267.1 128.3,259.4 130,276.2 
			131.7,280.6 133.4,293.5 135.1,299.3 136.8,296.9 138.5,298.8 140.2,292.6 141.9,294 143.6,296.9 145.3,293 147,289.2 
			148.7,279.1 150.4,283 152.1,287.8 153.8,284.4 155.5,291.1 157.2,292.6 158.9,288.7 160.6,290.2 162.3,288.2 164,298.8 
			165.7,295.4 167.4,289.2 169.1,284.4 170.8,280.1 172.5,282 174.2,283.4 175.9,279.6 177.6,285.4 179.3,280.1 181,280.1 
			182.7,270 184.4,267.6 186.1,267.1 187.8,263.3 189.5,258.5 191.2,261.4 192.9,253.2 194.6,260.9 196.3,266.2 198,267.1 
			199.7,261.4 201.4,271.9 203.1,259.4 204.8,252.7 206.5,245.5 208.2,254.2 209.9,271.4 211.6,264.7 213.3,265.7 215,253.7 
			216.7,255.1 218.4,259 220.1,258.5 221.8,252.7 223.5,261.8 225.2,265.7 226.9,267.1 228.6,261.4 230.3,267.1 232,277.7 
			233.7,282 235.4,288.7 237.1,284.4 238.8,297.4 240.5,299.8 242.2,301.7 243.9,299.3 245.6,300.7 247.3,299.3 249,298.8 
			250.7,299.3 252.4,303.6 254.1,306 255.8,306 257.5,306 259.2,306 260.9,306 262.6,306 264.3,306 266,306 267.7,306 269.4,306 
			271.1,306 272.8,306 274.5,306 276.2,306 277.9,306 279.6,306 281.3,306 283,306 284.7,306 286.4,306 288.1,306 289.8,306 
			291.5,306 293.2,306 294.9,306 296.6,306 298.3,305.5 300,306 301.7,306 303.4,306 305.1,306 306.8,306 308.5,306 310.2,306 
			311.9,306 313.6,306 315.3,306 317,306 318.7,306 320.4,306 322.1,306 323.8,306 325.5,306 327.2,306 328.9,306 330.6,306 
			332.3,306 334,306 335.7,306 337.4,306 339.1,306 340.8,306 342.5,306 344.2,306 345.9,306 347.6,306 349.3,306 351,306 
			352.7,306 354.4,306 356.1,306 357.8,306 359.5,306 361.2,306 362.9,306 364.6,306 366.3,306 368,306 369.7,306 371.4,306 
			373.1,306 374.8,306 376.5,306 378.2,306 379.9,306 381.6,306 383.3,306 385,306 386.7,306 388.4,306 390.1,306 391.8,306 
			393.5,306 395.2,306 396.9,306 398.6,306 400.3,306 402,306 403.7,306 405.4,306 407.1,306 408.8,306 410.5,306 412.2,306 
			413.9,306 415.6,306 417.3,306 419,306 420.7,306 422.4,306 424.1,306 425.8,306 427.5,306 429.2,306 430.9,306 432.6,306 
			434.3,306 436,306 437.7,306 439.4,306 441.1,306 442.8,306 444.5,306 446.2,306 447.9,306 449.6,306 451.3,306 453,306 
			454.7,306 456.4,306 458.1,306 459.8,306 461.5,306 463.2,306 464.9,306 466.6,306 468.3,306 470,306 471.7,306 473.4,306 
			475.1,306 476.8,306 478.5,306 480.2,306 481.9,306 483.6,306 485.3,306 487,306 488.7,306 490.4,306 492.1,306 493.8,306 
			495.5,306 497.2,306 498.9,306 500.6,306 502.3,306 504,306 505.7,306 507.4,306 509.1,306 510.8,306 512.5,306 514.2,306 
			515.9,306 517.6,306 519.3,306 521,306 522.7,306 524.4,306 526.1,306 527.8,306 529.5,306 531.2,306 532.9,306 534.6,306 
			536.3,306 538,306 539.7,306 541.4,306 543.1,306 544.8,306 546.5,306 548.2,306 549.9,306 551.6,306 553.3,306 555,306 
			556.7,306 558.4,306 560.1,306 561.8,306 563.5,306 565.2,306 566.9,306 568.6,306 570.3,306 572,306 573.7,306 575.4,306 
			577.1,306 578.8,306 580.5,306 582.2,306 583.9,306 585.6,306 587.3,306 589,306 590.7,306 592.4,306 594.1,306 595.8,306 
			597.5,306 599.2,306 600.9,306 602.6,306 604.3,306 606,306 607.7,306 609.4,306 611.1,306 612.8,306 614.5,306 616.2,306 
			617.9,306 619.6,306 621.3,306 623,306 624.7,306 626.4,306 628.1,306 629.8,306 631.5,306 633.2,306 634.9,306 636.6,306 
			638.3,306 640,306 641.7,306 643.4,306 645.1,306 646.8,306 648.5,306 650.2,306 651.9,306 653.6,306 655.3,306 657,306 
			658.7,306 660.4,306 662.1,306 663.8,306 665.5,306 667.2,306 668.9,306 670.6,306 672.3,306 674,306 675.7,306 677.4,306 
			679.1,306 680.8,306 682.5,306 684.2,306 685.9,306 687.6,306 689.3,305.5 691,306 692.7,306 694.4,306 696.1,306 697.8,306 
			699.5,306 701.2,306 702.9,306 704.6,306 706.3,306 708,306 709.7,306 711.4,306 713.1,306 714.8,306 716.5,306 718.2,306 
			719.9,306 721.6,306 723.3,306 725,306 726.7,306 728.4,306 730.1,306 731.8,306 733.5,306 735.2,306 736.9,306 738.6,306 
			740.3,306 742,306 743.7,306 745.4,306 747.1,306 748.8,306 750.5,306 752.2,306 753.9,306 755.6,306 757.3,306 759,306 
			760.7,306 762.4,306 764.1,306 765.8,306 767.5,306 769.2,306 770.9,306 772.6,306 774.3,306 776,306 777.7,306 779.4,306 
			781.1,306 782.8,306 784.5,306 786.2,306 787.9,306 789.6,306 791.3,306 793,306 794.7,306 796.4,306 798.1,306 799.8,306 
			801.5,306 803.2,306 804.9,306 806.6,306 808.3,306 810,306 811.7,306 813.4,306 815.1,306 816.8,306 818.5,306 820.2,306 
			821.9,306 823.6,306 825.3,306 827,306 828.7,306 830.4,306 832.1,306 833.8,306 835.5,306 837.2,306 838.9,306 840.6,306 
			842.3,306 844,306 845.7,306 847.4,306 849.1,306 850.8,306 852.5,306 854.2,306 855.9,306 857.6,306 859.3,306 861,306 
			862.7,306 864.4,306 866.1,306 867.8,306 869.5,306 871.2,306 872.9,306 874.6,306 876.3,306 878,306 879.7,306 881.4,306 
			883.1,306 884.8,306 886.5,306 888.2,306 889.9,306 891.6,306 		"/>
		<polyline class="st7" points="43.3,273.8 45,271.9 46.7,276.7 48.4,286.8 50.1,284.9 51.8,284.4 53.5,293 55.2,294 56.9,299.8 
			58.6,303.6 60.3,300.2 62,303.6 63.7,303.6 65.4,304.1 67.1,299.8 68.8,296.9 70.5,301.7 72.2,304.6 73.9,306 75.6,306 77.3,306 
			79,306 80.7,306 82.4,306 84.1,306 85.8,306 87.5,306 89.2,306 90.9,306 92.6,306 94.3,305.5 96,305 97.7,304.6 99.4,304.6 
			101.1,303.1 102.8,300.7 104.5,303.6 106.2,304.1 107.9,304.1 109.6,305 111.3,304.6 113,304.6 114.7,303.1 116.4,301.7 
			118.1,297.4 119.8,296.9 121.5,297.8 123.2,298.3 124.9,299.8 126.6,295.9 128.3,289.2 130,288.7 131.7,286.8 133.4,294 
			135.1,293.5 136.8,294.5 138.5,302.2 140.2,301.7 141.9,299.3 143.6,299.3 145.3,295.9 147,292.6 148.7,293 150.4,294 
			152.1,298.8 153.8,300.2 155.5,296.9 157.2,292.1 158.9,295 160.6,290.2 162.3,286.3 164,292.1 165.7,291.6 167.4,295.9 
			169.1,290.2 170.8,291.6 172.5,287.3 174.2,295.4 175.9,296.9 177.6,289.7 179.3,285.4 181,288.2 182.7,290.2 184.4,294 
			186.1,291.6 187.8,298.3 189.5,299.8 191.2,298.3 192.9,297.8 194.6,298.8 196.3,297.8 198,302.6 199.7,302.6 201.4,302.2 
			203.1,300.7 204.8,300.2 206.5,302.2 208.2,298.8 209.9,298.3 211.6,290.6 213.3,283 215,278.6 216.7,265.2 218.4,270.5 
			220.1,267.1 221.8,264.2 223.5,254.6 225.2,232.1 226.9,245 228.6,242.2 230.3,244.1 232,243.1 233.7,230.2 235.4,232.6 
			237.1,221.5 238.8,206.6 240.5,209.5 242.2,196.6 243.9,196.6 245.6,194.2 247.3,178.8 249,175.9 250.7,144.2 252.4,150 
			254.1,142.3 255.8,140.9 257.5,136.1 259.2,126.5 260.9,125.5 262.6,117.4 264.3,106.8 266,100.1 267.7,78 269.4,86.2 
			271.1,101.5 272.8,98.6 274.5,107.8 276.2,106.8 277.9,111.1 279.6,123.1 281.3,125 283,130.3 284.7,143.8 286.4,149 288.1,148.6 
			289.8,140.9 291.5,153.4 293.2,147.6 294.9,134.6 296.6,139.4 298.3,145.7 300,151 301.7,149 303.4,148.6 305.1,165.4 
			306.8,181.7 308.5,187.4 310.2,205.2 311.9,183.1 313.6,180.2 315.3,176.9 317,171.6 318.7,199.4 320.4,185 322.1,184.6 
			323.8,166.8 325.5,163 327.2,149 328.9,150 330.6,141.4 332.3,136.1 334,139.9 335.7,174 337.4,189.8 339.1,181.2 340.8,173.5 
			342.5,172.1 344.2,160.6 345.9,146.6 347.6,136.6 349.3,150 351,147.6 352.7,149.5 354.4,163.4 356.1,157.2 357.8,162 
			359.5,172.6 361.2,165.4 362.9,165.4 364.6,147.6 366.3,130.8 368,120.7 369.7,126.5 371.4,124.6 373.1,121.7 374.8,127.4 
			376.5,119.8 378.2,104.4 379.9,107.8 381.6,111.1 383.3,116.9 385,120.7 386.7,132.2 388.4,123.6 390.1,119.8 391.8,116.9 
			393.5,107.3 395.2,116.9 396.9,113 398.6,112.6 400.3,118.8 402,115.9 403.7,127 405.4,159.6 407.1,167.8 408.8,173.5 
			410.5,182.6 412.2,190.3 413.9,188.9 415.6,189.8 417.3,187.9 419,199.9 420.7,200.4 422.4,210.5 424.1,212.9 425.8,203.3 
			427.5,190.8 429.2,190.8 430.9,184.6 432.6,192.2 434.3,197.5 436,196.1 437.7,196.1 439.4,202.8 441.1,214.3 442.8,216.2 
			444.5,202.8 446.2,199 447.9,202.8 449.6,188.9 451.3,187.9 453,172.6 454.7,183.1 456.4,167.3 458.1,158.2 459.8,167.3 
			461.5,171.6 463.2,158.2 464.9,162 466.6,177.8 468.3,171.6 470,171.6 471.7,172.6 473.4,188.9 475.1,182.2 476.8,191.3 
			478.5,190.3 480.2,183.1 481.9,188.4 483.6,192.2 485.3,190.3 487,176.4 488.7,167.3 490.4,183.6 492.1,178.3 493.8,174 
			495.5,169.2 497.2,175.9 498.9,188.4 500.6,203.3 502.3,186.5 504,160.1 505.7,162 507.4,156.7 509.1,167.3 510.8,171.1 
			512.5,163.4 514.2,168.7 515.9,161.5 517.6,170.6 519.3,188.4 521,194.6 522.7,208.1 524.4,186 526.1,196.1 527.8,211 
			529.5,205.7 531.2,213.8 532.9,208.1 534.6,223 536.3,219.6 538,226.3 539.7,229.7 541.4,213.8 543.1,214.3 544.8,203.8 
			546.5,191.8 548.2,195.6 549.9,201.8 551.6,216.7 553.3,212.9 555,228.7 556.7,233.5 558.4,232.1 560.1,219.6 561.8,206.2 
			563.5,234 565.2,232.6 566.9,215.8 568.6,211.9 570.3,197.5 572,182.6 573.7,188.4 575.4,187 577.1,196.6 578.8,191.3 
			580.5,207.6 582.2,207.6 583.9,195.6 585.6,187.9 587.3,181.7 589,168.2 590.7,170.2 592.4,174.5 594.1,153.8 595.8,160.1 
			597.5,167.3 599.2,158.6 600.9,165.8 602.6,164.9 604.3,156.7 606,165.8 607.7,163.9 609.4,180.7 611.1,193.2 612.8,196.6 
			614.5,177.8 616.2,175.9 617.9,169.7 619.6,175.9 621.3,175.4 623,183.6 624.7,186.5 626.4,183.1 628.1,187.9 629.8,201.8 
			631.5,193.7 633.2,198 634.9,204.2 636.6,202.8 638.3,207.6 640,231.6 641.7,221 643.4,233.5 645.1,231.1 646.8,228.2 
			648.5,219.1 650.2,244.1 651.9,250.8 653.6,250.3 655.3,254.6 657,257.5 658.7,255.6 660.4,261.4 662.1,261.4 663.8,257 
			665.5,258 667.2,267.6 668.9,278.6 670.6,282.5 672.3,280.6 674,282 675.7,275.3 677.4,264.2 679.1,254.2 680.8,264.2 682.5,271 
			684.2,277.2 685.9,281 687.6,279.1 689.3,284.4 691,287.8 692.7,285.8 694.4,290.6 696.1,288.7 697.8,291.6 699.5,296.4 
			701.2,298.3 702.9,297.4 704.6,296.9 706.3,300.2 708,302.2 709.7,301.7 711.4,302.6 713.1,306 714.8,306 716.5,306 718.2,306 
			719.9,306 721.6,306 723.3,305.5 725,306 726.7,306 728.4,306 730.1,306 731.8,306 733.5,306 735.2,306 736.9,306 738.6,306 
			740.3,306 742,306 743.7,306 745.4,306 747.1,306 748.8,306 750.5,306 752.2,306 753.9,306 755.6,306 757.3,305.5 759,305.5 
			760.7,305 762.4,304.1 764.1,306 765.8,306 767.5,306 769.2,306 770.9,306 772.6,306 774.3,306 776,306 777.7,306 779.4,306 
			781.1,306 782.8,306 784.5,306 786.2,306 787.9,306 789.6,306 791.3,305.5 793,304.6 794.7,306 796.4,306 798.1,306 799.8,306 
			801.5,306 803.2,306 804.9,306 806.6,306 808.3,306 810,306 811.7,306 813.4,306 815.1,306 816.8,306 818.5,306 820.2,306 
			821.9,306 823.6,306 825.3,306 827,306 828.7,306 830.4,306 832.1,306 833.8,306 835.5,306 837.2,306 838.9,306 840.6,306 
			842.3,306 844,306 845.7,306 847.4,306 849.1,306 850.8,306 852.5,306 854.2,306 855.9,306 857.6,306 859.3,306 861,306 
			862.7,306 864.4,306 866.1,306 867.8,306 869.5,306 871.2,306 872.9,306 874.6,306 876.3,306 878,306 879.7,306 881.4,306 
			883.1,306 884.8,306 886.5,306 888.2,306 889.9,306 891.6,306 		"/>
		<polyline class="st8" points="43.3,273.8 45,277.2 46.7,261.8 48.4,275.8 50.1,283.4 51.8,286.3 53.5,287.3 55.2,295 56.9,295 
			58.6,298.3 60.3,299.8 62,297.4 63.7,300.2 65.4,303.1 67.1,304.1 68.8,304.6 70.5,304.1 72.2,300.7 73.9,303.6 75.6,303.6 
			77.3,304.6 79,305.5 80.7,305.5 82.4,306 84.1,306 85.8,306 87.5,306 89.2,306 90.9,306 92.6,306 94.3,306 96,306 97.7,306 
			99.4,306 101.1,306 102.8,306 104.5,306 106.2,306 107.9,306 109.6,306 111.3,306 113,306 114.7,306 116.4,306 118.1,306 
			119.8,306 121.5,306 123.2,306 124.9,306 126.6,306 128.3,306 130,306 131.7,306 133.4,306 135.1,306 136.8,306 138.5,306 
			140.2,306 141.9,306 143.6,306 145.3,306 147,306 148.7,306 150.4,306 152.1,306 153.8,306 155.5,306 157.2,306 158.9,306 
			160.6,306 162.3,306 164,306 165.7,306 167.4,306 169.1,306 170.8,306 172.5,306 174.2,306 175.9,306 177.6,306 179.3,306 
			181,306 182.7,306 184.4,306 186.1,306 187.8,306 189.5,306 191.2,306 192.9,306 194.6,306 196.3,306 198,306 199.7,306 
			201.4,306 203.1,306 204.8,306 206.5,306 208.2,306 209.9,306 211.6,306 213.3,306 215,306 216.7,306 218.4,306 220.1,306 
			221.8,306 223.5,306 225.2,306 226.9,306 228.6,306 230.3,306 232,306 233.7,306 235.4,306 237.1,306 238.8,306 240.5,306 
			242.2,306 243.9,306 245.6,306 247.3,306 249,306 250.7,306 252.4,306 254.1,306 255.8,306 257.5,306 259.2,306 260.9,306 
			262.6,306 264.3,306 266,306 267.7,306 269.4,306 271.1,306 272.8,306 274.5,306 276.2,306 277.9,306 279.6,306 281.3,306 
			283,306 284.7,306 286.4,306 288.1,306 289.8,306 291.5,306 293.2,306 294.9,306 296.6,306 298.3,306 300,306 301.7,306 
			303.4,306 305.1,306 306.8,306 308.5,306 310.2,306 311.9,306 313.6,306 315.3,306 317,306 318.7,306 320.4,306 322.1,306 
			323.8,306 325.5,306 327.2,306 328.9,306 330.6,306 332.3,306 334,306 335.7,306 337.4,306 339.1,306 340.8,306 342.5,306 
			344.2,306 345.9,306 347.6,306 349.3,306 351,306 352.7,306 354.4,306 356.1,306 357.8,306 359.5,306 361.2,306 362.9,306 
			364.6,306 366.3,306 368,306 369.7,306 371.4,306 373.1,306 374.8,306 376.5,306 378.2,306 379.9,306 381.6,306 383.3,306 
			385,306 386.7,306 388.4,306 390.1,306 391.8,306 393.5,306 395.2,306 396.9,306 398.6,306 400.3,305.5 402,306 403.7,306 
			405.4,306 407.1,306 408.8,306 410.5,306 412.2,306 413.9,306 415.6,306 417.3,306 419,306 420.7,306 422.4,306 424.1,306 
			425.8,306 427.5,306 429.2,306 430.9,306 432.6,306 434.3,306 436,306 437.7,306 439.4,306 441.1,306 442.8,306 444.5,306 
			446.2,306 447.9,306 449.6,306 451.3,306 453,306 454.7,306 456.4,306 458.1,306 459.8,306 461.5,306 463.2,306 464.9,306 
			466.6,306 468.3,306 470,306 471.7,306 473.4,306 475.1,306 476.8,306 478.5,306 480.2,306 481.9,306 483.6,306 485.3,306 
			487,306 488.7,306 490.4,306 492.1,306 493.8,306 495.5,306 497.2,306 498.9,306 500.6,306 502.3,306 504,306 505.7,306 
			507.4,306 509.1,306 510.8,306 512.5,306 514.2,306 515.9,306 517.6,306 519.3,306 521,306 522.7,306 524.4,306 526.1,306 
			527.8,306 529.5,306 531.2,306 532.9,306 534.6,306 536.3,306 538,306 539.7,306 541.4,306 543.1,306 544.8,306 546.5,306 
			548.2,306 549.9,306 551.6,306 553.3,306 555,306 556.7,306 558.4,306 560.1,306 561.8,306 563.5,306 565.2,306 566.9,306 
			568.6,306 570.3,306 572,306 573.7,306 575.4,306 577.1,306 578.8,306 580.5,306 582.2,306 583.9,306 585.6,306 587.3,306 
			589,306 590.7,306 592.4,306 594.1,306 595.8,306 597.5,306 599.2,306 600.9,306 602.6,306 604.3,306 606,306 607.7,306 
			609.4,306 611.1,306 612.8,306 614.5,306 616.2,306 617.9,306 619.6,306 621.3,306 623,306 624.7,306 626.4,306 628.1,306 
			629.8,306 631.5,306 633.2,306 634.9,306 636.6,306 638.3,306 640,306 641.7,306 643.4,306 645.1,306 646.8,306 648.5,306 
			650.2,306 651.9,306 653.6,306 655.3,306 657,306 658.7,306 660.4,306 662.1,306 663.8,306 665.5,306 667.2,306 668.9,306 
			670.6,306 672.3,306 674,306 675.7,306 677.4,306 679.1,306 680.8,306 682.5,306 684.2,306 685.9,306 687.6,306 689.3,306 
			691,306 692.7,306 694.4,306 696.1,306 697.8,306 699.5,306 701.2,306 702.9,306 704.6,306 706.3,306 708,306 709.7,306 
			711.4,306 713.1,306 714.8,306 716.5,306 718.2,306 719.9,306 721.6,306 723.3,306 725,306 726.7,306 728.4,306 730.1,306 
			731.8,306 733.5,306 735.2,306 736.9,306 738.6,306 740.3,306 742,306 743.7,306 745.4,306 747.1,306 748.8,306 750.5,306 
			752.2,306 753.9,306 755.6,306 757.3,306 759,306 760.7,306 762.4,306 764.1,306 765.8,306 767.5,306 769.2,306 770.9,306 
			772.6,306 774.3,306 776,306 777.7,306 779.4,306 781.1,306 782.8,306 784.5,306 786.2,306 787.9,306 789.6,306 791.3,306 
			793,306 794.7,306 796.4,306 798.1,306 799.8,306 801.5,306 803.2,306 804.9,306 806.6,306 808.3,306 810,306 811.7,306 
			813.4,306 815.1,306 816.8,306 818.5,306 820.2,306 821.9,306 823.6,306 825.3,306 827,306 828.7,306 830.4,306 832.1,306 
			833.8,306 835.5,306 837.2,306 838.9,306 840.6,306 842.3,306 844,306 845.7,306 847.4,306 849.1,306 850.8,306 852.5,306 
			854.2,306 855.9,306 857.6,306 859.3,306 861,306 862.7,306 864.4,306 866.1,306 867.8,306 869.5,306 871.2,306 872.9,306 
			874.6,306 876.3,305.5 878,303.1 879.7,305 881.4,306 883.1,306 884.8,306 886.5,306 888.2,306 889.9,306 891.6,306 		"/>
		<polyline class="st9" points="43.3,273.8 45,272.4 46.7,272.4 48.4,265.2 50.1,260.4 51.8,265.2 53.5,266.6 55.2,269 56.9,272.9 
			58.6,266.2 60.3,273.8 62,277.2 63.7,276.7 65.4,291.6 67.1,295.9 68.8,302.2 70.5,303.6 72.2,305 73.9,305 75.6,304.1 
			77.3,304.1 79,303.6 80.7,304.6 82.4,303.6 84.1,305.5 85.8,306 87.5,306 89.2,306 90.9,306 92.6,306 94.3,306 96,306 97.7,306 
			99.4,306 101.1,306 102.8,306 104.5,306 106.2,306 107.9,306 109.6,306 111.3,306 113,306 114.7,306 116.4,306 118.1,306 
			119.8,306 121.5,306 123.2,306 124.9,306 126.6,306 128.3,305.5 130,306 131.7,306 133.4,306 135.1,306 136.8,306 138.5,306 
			140.2,306 141.9,306 143.6,306 145.3,306 147,306 148.7,306 150.4,306 152.1,306 153.8,306 155.5,306 157.2,306 158.9,306 
			160.6,306 162.3,306 164,306 165.7,306 167.4,306 169.1,306 170.8,306 172.5,306 174.2,306 175.9,306 177.6,306 179.3,306 
			181,306 182.7,306 184.4,306 186.1,306 187.8,306 189.5,306 191.2,306 192.9,306 194.6,306 196.3,306 198,306 199.7,306 
			201.4,306 203.1,306 204.8,306 206.5,306 208.2,306 209.9,306 211.6,306 213.3,305.5 215,306 216.7,306 218.4,306 220.1,306 
			221.8,306 223.5,306 225.2,306 226.9,306 228.6,306 230.3,306 232,306 233.7,306 235.4,306 237.1,306 238.8,306 240.5,306 
			242.2,306 243.9,306 245.6,306 247.3,306 249,306 250.7,306 252.4,306 254.1,306 255.8,306 257.5,306 259.2,306 260.9,306 
			262.6,306 264.3,305.5 266,306 267.7,306 269.4,306 271.1,306 272.8,306 274.5,306 276.2,306 277.9,306 279.6,306 281.3,306 
			283,306 284.7,306 286.4,306 288.1,306 289.8,306 291.5,306 293.2,306 294.9,306 296.6,306 298.3,306 300,306 301.7,306 
			303.4,306 305.1,306 306.8,306 308.5,306 310.2,306 311.9,306 313.6,306 315.3,306 317,306 318.7,306 320.4,306 322.1,306 
			323.8,306 325.5,306 327.2,306 328.9,306 330.6,306 332.3,306 334,306 335.7,306 337.4,306 339.1,306 340.8,306 342.5,306 
			344.2,306 345.9,306 347.6,306 349.3,306 351,306 352.7,306 354.4,306 356.1,306 357.8,306 359.5,306 361.2,306 362.9,306 
			364.6,306 366.3,306 368,306 369.7,306 371.4,306 373.1,306 374.8,306 376.5,306 378.2,306 379.9,306 381.6,306 383.3,306 
			385,306 386.7,306 388.4,306 390.1,306 391.8,306 393.5,306 395.2,306 396.9,306 398.6,306 400.3,306 402,306 403.7,306 
			405.4,306 407.1,306 408.8,306 410.5,306 412.2,306 413.9,306 415.6,306 417.3,305.5 419,306 420.7,306 422.4,306 424.1,306 
			425.8,306 427.5,306 429.2,306 430.9,306 432.6,306 434.3,305.5 436,305.5 437.7,304.1 439.4,299.3 441.1,303.6 442.8,303.6 
			444.5,305.5 446.2,300.7 447.9,302.2 449.6,303.6 451.3,301.2 453,304.6 454.7,301.7 456.4,301.7 458.1,300.7 459.8,298.8 
			461.5,302.6 463.2,305.5 464.9,306 466.6,306 468.3,306 470,306 471.7,306 473.4,306 475.1,306 476.8,306 478.5,306 480.2,306 
			481.9,306 483.6,306 485.3,306 487,306 488.7,306 490.4,306 492.1,306 493.8,306 495.5,306 497.2,306 498.9,306 500.6,306 
			502.3,306 504,306 505.7,306 507.4,306 509.1,306 510.8,306 512.5,306 514.2,306 515.9,306 517.6,306 519.3,306 521,306 
			522.7,306 524.4,306 526.1,306 527.8,306 529.5,306 531.2,306 532.9,306 534.6,306 536.3,306 538,306 539.7,306 541.4,306 
			543.1,306 544.8,306 546.5,306 548.2,306 549.9,306 551.6,306 553.3,305.5 555,306 556.7,306 558.4,306 560.1,306 561.8,306 
			563.5,306 565.2,306 566.9,306 568.6,306 570.3,306 572,306 573.7,306 575.4,306 577.1,306 578.8,306 580.5,306 582.2,306 
			583.9,306 585.6,306 587.3,306 589,306 590.7,306 592.4,306 594.1,306 595.8,306 597.5,306 599.2,306 600.9,306 602.6,306 
			604.3,306 606,306 607.7,306 609.4,306 611.1,306 612.8,306 614.5,306 616.2,306 617.9,306 619.6,306 621.3,306 623,306 
			624.7,306 626.4,306 628.1,306 629.8,306 631.5,306 633.2,306 634.9,306 636.6,306 638.3,306 640,306 641.7,306 643.4,306 
			645.1,306 646.8,306 648.5,306 650.2,306 651.9,306 653.6,306 655.3,306 657,306 658.7,306 660.4,306 662.1,306 663.8,306 
			665.5,306 667.2,306 668.9,306 670.6,306 672.3,306 674,306 675.7,306 677.4,306 679.1,306 680.8,306 682.5,306 684.2,306 
			685.9,306 687.6,306 689.3,306 691,306 692.7,306 694.4,306 696.1,306 697.8,306 699.5,306 701.2,306 702.9,306 704.6,306 
			706.3,306 708,306 709.7,306 711.4,306 713.1,306 714.8,306 716.5,306 718.2,306 719.9,306 721.6,306 723.3,306 725,306 
			726.7,306 728.4,306 730.1,306 731.8,306 733.5,306 735.2,306 736.9,306 738.6,306 740.3,306 742,306 743.7,306 745.4,306 
			747.1,306 748.8,306 750.5,306 752.2,306 753.9,306 755.6,306 757.3,306 759,306 760.7,306 762.4,306 764.1,306 765.8,306 
			767.5,306 769.2,306 770.9,306 772.6,306 774.3,306 776,306 777.7,306 779.4,306 781.1,306 782.8,306 784.5,306 786.2,306 
			787.9,306 789.6,306 791.3,306 793,306 794.7,306 796.4,306 798.1,306 799.8,306 801.5,306 803.2,306 804.9,306 806.6,306 
			808.3,306 810,306 811.7,306 813.4,306 815.1,306 816.8,306 818.5,306 820.2,306 821.9,306 823.6,306 825.3,305.5 827,304.1 
			828.7,305.5 830.4,304.6 832.1,302.2 833.8,304.6 835.5,302.2 837.2,301.2 838.9,294 840.6,295 842.3,296.4 844,298.3 
			845.7,302.6 847.4,304.1 849.1,305 850.8,305.5 852.5,306 854.2,306 855.9,306 857.6,306 859.3,306 861,306 862.7,306 864.4,306 
			866.1,306 867.8,306 869.5,306 871.2,306 872.9,306 874.6,306 876.3,306 878,306 879.7,306 881.4,306 883.1,306 884.8,306 
			886.5,306 888.2,306 889.9,306 891.6,306 		"/>
		<polyline class="st10" points="43.3,276.2 45,277.7 46.7,280.6 48.4,278.6 50.1,278.2 51.8,280.1 53.5,279.1 55.2,278.2 
			56.9,274.8 58.6,277.2 60.3,275.8 62,259.9 63.7,267.6 65.4,260.4 67.1,264.2 68.8,257.5 70.5,255.6 72.2,250.8 73.9,238.8 
			75.6,250.3 77.3,246 79,241.2 80.7,232.1 82.4,223.4 84.1,228.2 85.8,227.8 87.5,224.4 89.2,209.5 90.9,194.2 92.6,184.1 
			94.3,187 96,183.6 97.7,180.7 99.4,187.4 101.1,168.2 102.8,156.7 104.5,153.4 106.2,153.8 107.9,142.3 109.6,157.2 111.3,166.8 
			113,162 114.7,166.8 116.4,171.1 118.1,163.9 119.8,182.2 121.5,175.9 123.2,172.1 124.9,184.1 126.6,188.9 128.3,186.5 130,198 
			131.7,201.8 133.4,191.8 135.1,176.9 136.8,203.3 138.5,195.1 140.2,202.3 141.9,198 143.6,173 145.3,163 147,169.2 148.7,165.4 
			150.4,164.9 152.1,159.6 153.8,161 155.5,169.7 157.2,168.7 158.9,175.9 160.6,186.5 162.3,189.4 164,190.8 165.7,200.4 
			167.4,199 169.1,223.9 170.8,233 172.5,227.8 174.2,219.1 175.9,207.6 177.6,210.5 179.3,214.3 181,210 182.7,205.2 184.4,199.4 
			186.1,197 187.8,208.6 189.5,215.8 191.2,211.4 192.9,218.2 194.6,217.2 196.3,211.4 198,206.6 199.7,211 201.4,186.5 
			203.1,197.5 204.8,195.1 206.5,213.8 208.2,222 209.9,215.3 211.6,218.2 213.3,247 215,248.9 216.7,251.3 218.4,244.6 
			220.1,250.8 221.8,257 223.5,259.9 225.2,269.5 226.9,263.3 228.6,261.4 230.3,265.7 232,262.8 233.7,267.1 235.4,267.6 
			237.1,271 238.8,264.7 240.5,260.9 242.2,271 243.9,269.5 245.6,264.7 247.3,267.1 249,270.5 250.7,275.3 252.4,273.4 
			254.1,271.4 255.8,268.1 257.5,261.4 259.2,276.7 260.9,271.4 262.6,274.3 264.3,282.5 266,285.4 267.7,292.1 269.4,291.6 
			271.1,282.5 272.8,280.1 274.5,276.2 276.2,277.7 277.9,277.7 279.6,278.6 281.3,278.2 283,280.6 284.7,266.6 286.4,252.2 
			288.1,250.8 289.8,246 291.5,241.2 293.2,252.2 294.9,252.2 296.6,252.2 298.3,261.4 300,272.4 301.7,270 303.4,271 305.1,268.6 
			306.8,260.4 308.5,255.1 310.2,252.2 311.9,257.5 313.6,248.9 315.3,235 317,249.8 318.7,258.5 320.4,259.9 322.1,254.2 
			323.8,253.2 325.5,260.9 327.2,265.7 328.9,265.2 330.6,259.9 332.3,257 334,256.6 335.7,256.1 337.4,247.4 339.1,240.7 
			340.8,246 342.5,242.2 344.2,250.3 345.9,246.5 347.6,253.7 349.3,243.6 351,245 352.7,249.4 354.4,233 356.1,238.8 357.8,226.8 
			359.5,220.1 361.2,223.9 362.9,218.6 364.6,229.7 366.3,233 368,233 369.7,228.2 371.4,227.8 373.1,225.4 374.8,222.5 
			376.5,220.6 378.2,230.6 379.9,232.6 381.6,228.7 383.3,223.4 385,222 386.7,211.9 388.4,213.4 390.1,224.9 391.8,230.2 
			393.5,231.1 395.2,233 396.9,235.4 398.6,233.5 400.3,232.6 402,231.6 403.7,226.8 405.4,206.2 407.1,200.9 408.8,190.3 
			410.5,181.2 412.2,170.6 413.9,156.2 415.6,157.7 417.3,157.2 419,157.7 420.7,173 422.4,163.4 424.1,154.3 425.8,160.6 
			427.5,168.7 429.2,184.6 430.9,187.4 432.6,188.4 434.3,187 436,202.3 437.7,199 439.4,193.7 441.1,178.8 442.8,184.1 
			444.5,200.9 446.2,211 447.9,223 449.6,223.9 451.3,240.2 453,252.2 454.7,252.7 456.4,258 458.1,264.7 459.8,254.6 461.5,254.2 
			463.2,250.8 464.9,255.1 466.6,244.6 468.3,243.6 470,243.6 471.7,242.6 473.4,231.6 475.1,228.2 476.8,203.8 478.5,196.1 
			480.2,200.9 481.9,191.3 483.6,207.6 485.3,204.2 487,217.2 488.7,216.7 490.4,195.1 492.1,200.4 493.8,200.9 495.5,201.4 
			497.2,197.5 498.9,173 500.6,163.4 502.3,177.4 504,203.3 505.7,206.2 507.4,210.5 509.1,201.8 510.8,201.4 512.5,206.2 
			514.2,208.1 515.9,209 517.6,201.8 519.3,201.8 521,193.7 522.7,178.8 524.4,191.8 526.1,194.6 527.8,179.8 529.5,162 
			531.2,159.6 532.9,173.5 534.6,152.4 536.3,153.8 538,160.1 539.7,166.8 541.4,180.7 543.1,170.2 544.8,173 546.5,184.1 
			548.2,174 549.9,158.2 551.6,147.6 553.3,167.3 555,161.5 556.7,175 558.4,169.2 560.1,165.8 561.8,169.7 563.5,148.1 
			565.2,152.9 566.9,164.4 568.6,173 570.3,178.3 572,187.9 573.7,189.4 575.4,174.5 577.1,171.6 578.8,163.9 580.5,159.1 
			582.2,167.3 583.9,167.3 585.6,159.1 587.3,161 589,171.1 590.7,172.1 592.4,172.6 594.1,188.4 595.8,180.2 597.5,169.2 
			599.2,181.7 600.9,178.3 602.6,174 604.3,177.8 606,163 607.7,156.2 609.4,135.1 611.1,120.2 612.8,116.4 614.5,134.6 
			616.2,136.1 617.9,142.3 619.6,136.1 621.3,136.6 623,128.4 624.7,125.5 626.4,128.9 628.1,124.1 629.8,110.2 631.5,118.3 
			633.2,114 634.9,107.8 636.6,109.2 638.3,104.9 640,80.4 641.7,91 643.4,78.5 645.1,80.9 646.8,83.8 648.5,92.9 650.2,67.9 
			651.9,61.2 653.6,61.7 655.3,57.8 657,55 658.7,56.4 660.4,50.6 662.1,50.6 663.8,55 665.5,54 667.2,44.4 668.9,33.4 670.6,29.5 
			672.3,31.4 674,30 675.7,36.7 677.4,47.8 679.1,57.8 680.8,47.8 682.5,41 684.2,34.8 685.9,31 687.6,32.9 689.3,28.1 691,24.2 
			692.7,26.2 694.4,21.4 696.1,23.3 697.8,20.4 699.5,15.6 701.2,13.7 702.9,14.6 704.6,15.1 706.3,11.8 708,9.8 709.7,10.3 
			711.4,9.4 713.1,6 714.8,6 716.5,6 718.2,6 719.9,6 721.6,6 723.3,6.5 725,6 726.7,6 728.4,6 730.1,6 731.8,6 733.5,6 735.2,6 
			736.9,6 738.6,6 740.3,6 742,6 743.7,6 745.4,6 747.1,6 748.8,6 750.5,6 752.2,6 753.9,6 755.6,6 757.3,6.5 759,6.5 760.7,7 
			762.4,7.9 764.1,6 765.8,6 767.5,6 769.2,6 770.9,6 772.6,6 774.3,6.5 776,6 777.7,6 779.4,6 781.1,6 782.8,6 784.5,6 786.2,6 
			787.9,6 789.6,6 791.3,6.5 793,7.4 794.7,6 796.4,6 798.1,6 799.8,6 801.5,6 803.2,6 804.9,6 806.6,6 808.3,6.5 810,6 811.7,6 
			813.4,6 815.1,6 816.8,6 818.5,6 820.2,6 821.9,6 823.6,6 825.3,6.5 827,7.9 828.7,6.5 830.4,7.4 832.1,9.8 833.8,7.4 835.5,9.8 
			837.2,10.8 838.9,18 840.6,17 842.3,16.1 844,13.7 845.7,9.4 847.4,7.9 849.1,7 850.8,6.5 852.5,6 854.2,6 855.9,6 857.6,6 
			859.3,6.5 861,6 862.7,6 864.4,6 866.1,6 867.8,6 869.5,6 871.2,6 872.9,6 874.6,6 876.3,6.5 878,8.9 879.7,7 881.4,6 883.1,6 
			884.8,6 886.5,6 888.2,6 889.9,6 891.6,6 		"/>
		<polyline class="st11" points="43.3,271.9 45,270 46.7,269.5 48.4,254.2 50.1,244.1 51.8,233 53.5,216.7 55.2,234 56.9,238.3 
			58.6,249.4 60.3,249.8 62,255.1 63.7,245 65.4,247.9 67.1,244.6 68.8,247.9 70.5,227.8 72.2,229.7 73.9,242.2 75.6,231.1 
			77.3,225.4 79,227.3 80.7,222 82.4,220.6 84.1,201.4 85.8,207.6 87.5,192.2 89.2,195.6 90.9,202.8 92.6,204.2 94.3,187.4 
			96,191.3 97.7,195.6 99.4,183.1 101.1,200.4 102.8,217.2 104.5,216.7 106.2,222.5 107.9,226.3 109.6,213.8 111.3,210 113,211 
			114.7,212.4 116.4,218.2 118.1,227.3 119.8,216.7 121.5,214.3 123.2,227.3 124.9,215.8 126.6,224.4 128.3,230.2 130,207.6 
			131.7,208.1 133.4,192.7 135.1,198 136.8,186.5 138.5,197.5 140.2,209 141.9,219.1 143.6,225.8 145.3,234.5 147,235.9 148.7,234 
			150.4,230.6 152.1,233 153.8,237.4 155.5,226.3 157.2,233 158.9,233.5 160.6,230.6 162.3,241.2 164,222 165.7,229.7 167.4,223 
			169.1,211.4 170.8,213.8 172.5,215.3 174.2,208.6 175.9,218.6 177.6,223 179.3,223.9 181,226.3 182.7,222.5 184.4,223.4 
			186.1,231.6 187.8,235 189.5,229.2 191.2,242.2 192.9,243.1 194.6,231.6 196.3,230.6 198,239.8 199.7,249.4 201.4,261.4 
			203.1,264.2 204.8,275.8 206.5,265.7 208.2,254.2 209.9,246.5 211.6,257.5 213.3,253.7 215,260.4 216.7,269.5 218.4,268.1 
			220.1,253.7 221.8,250.8 223.5,249.4 225.2,257.5 226.9,244.1 228.6,247 230.3,244.6 232,234.5 233.7,247.4 235.4,253.2 
			237.1,245 238.8,252.2 240.5,244.6 242.2,255.1 243.9,257 245.6,266.6 247.3,274.8 249,278.6 250.7,279.1 252.4,290.6 
			254.1,291.1 255.8,294 257.5,295.4 259.2,289.7 260.9,288.7 262.6,284.9 264.3,286.8 266,276.7 267.7,288.2 269.4,287.8 
			271.1,293 272.8,300.2 274.5,304.6 276.2,304.6 277.9,302.6 279.6,302.6 281.3,298.8 283,298.8 284.7,303.1 286.4,302.2 
			288.1,302.6 289.8,305 291.5,306 293.2,306 294.9,306 296.6,306 298.3,306 300,306 301.7,306 303.4,306 305.1,306 306.8,306 
			308.5,306 310.2,306 311.9,306 313.6,306 315.3,305.5 317,306 318.7,306 320.4,306 322.1,306 323.8,306 325.5,306 327.2,306 
			328.9,306 330.6,306 332.3,306 334,306 335.7,306 337.4,306 339.1,306 340.8,306 342.5,306 344.2,306 345.9,306 347.6,306 
			349.3,306 351,306 352.7,306 354.4,306 356.1,306 357.8,306 359.5,306 361.2,306 362.9,306 364.6,306 366.3,305.5 368,306 
			369.7,306 371.4,306 373.1,306 374.8,306 376.5,306 378.2,306 379.9,306 381.6,306 383.3,306 385,306 386.7,306 388.4,306 
			390.1,306 391.8,306 393.5,306 395.2,306 396.9,306 398.6,306 400.3,306 402,306 403.7,306 405.4,306 407.1,306 408.8,306 
			410.5,306 412.2,306 413.9,306 415.6,306 417.3,306 419,306 420.7,306 422.4,306 424.1,306 425.8,306 427.5,306 429.2,306 
			430.9,306 432.6,306 434.3,306 436,306 437.7,306 439.4,306 441.1,306 442.8,306 444.5,306 446.2,306 447.9,306 449.6,306 
			451.3,306 453,306 454.7,306 456.4,306 458.1,306 459.8,306 461.5,306 463.2,306 464.9,306 466.6,306 468.3,306 470,306 
			471.7,306 473.4,306 475.1,306 476.8,306 478.5,306 480.2,306 481.9,306 483.6,306 485.3,306 487,306 488.7,306 490.4,306 
			492.1,306 493.8,306 495.5,306 497.2,306 498.9,306 500.6,306 502.3,306 504,306 505.7,306 507.4,306 509.1,306 510.8,306 
			512.5,306 514.2,306 515.9,306 517.6,306 519.3,306 521,306 522.7,306 524.4,306 526.1,306 527.8,306 529.5,306 531.2,306 
			532.9,306 534.6,306 536.3,306 538,306 539.7,306 541.4,306 543.1,306 544.8,306 546.5,306 548.2,306 549.9,306 551.6,306 
			553.3,306 555,306 556.7,306 558.4,306 560.1,306 561.8,306 563.5,306 565.2,306 566.9,306 568.6,306 570.3,306 572,306 
			573.7,306 575.4,306 577.1,306 578.8,306 580.5,306 582.2,306 583.9,306 585.6,306 587.3,306 589,306 590.7,306 592.4,306 
			594.1,306 595.8,306 597.5,306 599.2,306 600.9,306 602.6,306 604.3,305.5 606,305.5 607.7,306 609.4,306 611.1,306 612.8,306 
			614.5,306 616.2,306 617.9,306 619.6,306 621.3,306 623,306 624.7,306 626.4,306 628.1,306 629.8,306 631.5,306 633.2,306 
			634.9,306 636.6,306 638.3,306 640,306 641.7,306 643.4,306 645.1,306 646.8,306 648.5,306 650.2,306 651.9,306 653.6,306 
			655.3,306 657,306 658.7,306 660.4,306 662.1,306 663.8,306 665.5,306 667.2,306 668.9,306 670.6,306 672.3,306 674,306 
			675.7,306 677.4,306 679.1,306 680.8,306 682.5,306 684.2,306 685.9,306 687.6,306 689.3,306 691,306 692.7,306 694.4,306 
			696.1,306 697.8,306 699.5,306 701.2,306 702.9,306 704.6,306 706.3,306 708,306 709.7,306 711.4,306 713.1,306 714.8,306 
			716.5,306 718.2,306 719.9,306 721.6,306 723.3,306 725,306 726.7,306 728.4,306 730.1,306 731.8,306 733.5,306 735.2,306 
			736.9,306 738.6,306 740.3,306 742,306 743.7,306 745.4,306 747.1,306 748.8,306 750.5,306 752.2,306 753.9,306 755.6,306 
			757.3,306 759,306 760.7,306 762.4,306 764.1,306 765.8,306 767.5,306 769.2,306 770.9,306 772.6,306 774.3,305.5 776,306 
			777.7,306 779.4,306 781.1,306 782.8,306 784.5,306 786.2,306 787.9,306 789.6,306 791.3,306 793,306 794.7,306 796.4,306 
			798.1,306 799.8,306 801.5,306 803.2,306 804.9,306 806.6,306 808.3,306 810,306 811.7,306 813.4,306 815.1,306 816.8,306 
			818.5,306 820.2,306 821.9,306 823.6,306 825.3,306 827,306 828.7,306 830.4,306 832.1,306 833.8,306 835.5,306 837.2,306 
			838.9,306 840.6,306 842.3,306 844,306 845.7,306 847.4,306 849.1,306 850.8,306 852.5,306 854.2,306 855.9,306 857.6,306 
			859.3,306 861,306 862.7,306 864.4,306 866.1,306 867.8,306 869.5,306 871.2,306 872.9,306 874.6,306 876.3,306 878,306 
			879.7,306 881.4,306 883.1,306 884.8,306 886.5,306 888.2,306 889.9,306 891.6,306 		"/>
	</g>
	<path class="st12" d="M43.3,6v300h850 M43.3,306v3 M213.3,306v3 M383.3,306v3 M553.3,306v3 M723.3,306v3 M893.1,306v3 M43.3,306h-3
		 M43.3,258h-3 M43.3,210h-3 M43.3,162h-3 M43.3,114h-3 M43.3,66h-3 M43.3,18h-3"/>
	<text transform="matrix(1 0 0 1 39.9678 320.5)" class="st13 st14 st15">0</text>
	<text transform="matrix(1 0 0 1 203.2959 320.5)" class="st13 st14 st15">100</text>
	<text transform="matrix(1 0 0 1 373.2959 320.5)" class="st13 st14 st15">200</text>
	<text transform="matrix(1 0 0 1 543.2959 320.5)" class="st13 st14 st15">300</text>
	<text transform="matrix(1 0 0 1 713.2959 320.5)" class="st13 st14 st15">400</text>
	<text transform="matrix(1 0 0 1 883.2959 320.5)" class="st13 st14 st15">500</text>
	<text transform="matrix(1 0 0 1 32.2334 311)" class="st13 st14 st15">0</text>
	<text transform="matrix(1 0 0 1 18.8896 263)" class="st13 st14 st15">100</text>
	<text transform="matrix(1 0 0 1 18.8896 215)" class="st13 st14 st15">200</text>
	<text transform="matrix(1 0 0 1 18.8896 166.9922)" class="st13 st14 st15">300</text>
	<text transform="matrix(1 0 0 1 18.8896 119)" class="st13 st14 st15">400</text>
	<text transform="matrix(1 0 0 1 18.8896 71)" class="st13 st14 st15">500</text>
	<text transform="matrix(1 0 0 1 18.8896 23)" class="st13 st14 st15">600</text>
	<text transform="matrix(1 0 0 1 420.6162 334)" class="st13 st14 st15">steps (thousands)</text>
	<text transform="matrix(0 -1 1 0 12.3037 207.6953)" class="st13 st14 st15">species abundance</text>
</g>
<text transform="matrix(1 0 0 1 59.6125 45.44)" class="st13 st14 st15">immigration rate = 1/10,000</text>
</svg>
